<?xml version="1.0" standalone="no"?>
<!DOCTYPE svg PUBLIC "-//W3C//DTD SVG 20010904//EN"
 "http://www.w3.org/TR/2001/REC-SVG-20010904/DTD/svg10.dtd">
<svg version="1.0" xmlns="http://www.w3.org/2000/svg"
 width="900.000000pt" height="900.000000pt" viewBox="0 0 900.000000 900.000000"
 preserveAspectRatio="xMidYMid meet">
<metadata>
Created by potrace 1.11, written by Peter Selinger 2001-2013
</metadata>
<g transform="translate(0.000000,900.000000) scale(0.100000,-0.100000)"
fill="#000000" stroke="none">
<path d="M3430 8550 c-9 -6 -10 -10 -3 -10 6 0 15 5 18 10 8 12 4 12 -15 0z"/>
<path d="M5515 8540 c-3 -6 1 -7 9 -4 18 7 21 14 7 14 -6 0 -13 -4 -16 -10z"/>
<path d="M3158 8493 c7 -3 16 -2 19 1 4 3 -2 6 -13 5 -11 0 -14 -3 -6 -6z"/>
<path d="M5750 8484 c-14 -8 -18 -14 -10 -14 8 1 24 7 34 15 24 19 10 18 -24
-1z"/>
<path d="M5790 8480 c-9 -6 -10 -10 -3 -10 6 0 15 5 18 10 8 12 4 12 -15 0z"/>
<path d="M5708 8453 c7 -3 16 -2 19 1 4 3 -2 6 -13 5 -11 0 -14 -3 -6 -6z"/>
<path d="M5758 8453 c7 -3 16 -2 19 1 4 3 -2 6 -13 5 -11 0 -14 -3 -6 -6z"/>
<path d="M2985 8430 c-3 -5 -1 -10 4 -10 6 0 11 5 11 10 0 6 -2 10 -4 10 -3 0
-8 -4 -11 -10z"/>
<path d="M5037 8429 c7 -7 15 -10 18 -7 3 3 -2 9 -12 12 -14 6 -15 5 -6 -5z"/>
<path d="M3878 8423 c7 -3 16 -2 19 1 4 3 -2 6 -13 5 -11 0 -14 -3 -6 -6z"/>
<path d="M4328 8423 c7 -3 16 -2 19 1 4 3 -2 6 -13 5 -11 0 -14 -3 -6 -6z"/>
<path d="M4875 8420 c-3 -6 1 -7 9 -4 18 7 21 14 7 14 -6 0 -13 -4 -16 -10z"/>
<path d="M5925 8411 c-3 -7 -3 -16 0 -19 3 -3 5 -1 5 5 0 5 13 10 29 11 22 0
28 -3 24 -14 -3 -9 -12 -12 -25 -8 -15 4 -18 3 -13 -7 6 -9 3 -11 -9 -6 -9 4
-15 3 -12 -2 7 -11 67 -7 91 7 11 6 15 12 8 12 -6 0 -15 -4 -18 -10 -3 -5 -12
-10 -18 -10 -7 0 2 10 18 21 17 12 23 19 14 16 -9 -3 -21 -1 -28 6 -16 16 -60
15 -66 -2z"/>
<path d="M2941 8400 c-13 -11 -19 -20 -14 -20 6 0 18 9 28 20 23 25 17 25 -14
0z"/>
<path d="M3988 8413 c7 -3 16 -2 19 1 4 3 -2 6 -13 5 -11 0 -14 -3 -6 -6z"/>
<path d="M5100 8410 c-22 -7 -21 -8 13 -9 23 -1 36 3 32 9 -7 11 -10 11 -45 0z"/>
<path d="M2980 8400 c-13 -8 -13 -10 2 -10 9 0 20 5 23 10 8 13 -5 13 -25 0z"/>
<path d="M3026 8393 c-6 -14 -5 -15 5 -6 7 7 10 15 7 18 -3 3 -9 -2 -12 -12z"/>
<path d="M3841 8396 c-20 -11 -21 -14 -6 -19 24 -10 32 -8 16 2 -11 7 -6 12
20 19 19 6 25 10 14 11 -11 0 -31 -6 -44 -13z"/>
<path d="M3928 8403 c7 -3 16 -2 19 1 4 3 -2 6 -13 5 -11 0 -14 -3 -6 -6z"/>
<path d="M4048 8403 c7 -3 16 -2 19 1 4 3 -2 6 -13 5 -11 0 -14 -3 -6 -6z"/>
<path d="M5018 8403 c7 -3 16 -2 19 1 4 3 -2 6 -13 5 -11 0 -14 -3 -6 -6z"/>
<path d="M2887 8391 c-17 -6 -16 -8 8 -19 14 -7 31 -12 38 -11 7 0 2 4 -11 10
-13 5 -20 13 -17 19 7 11 7 11 -18 1z"/>
<path d="M3908 8383 c7 -3 16 -2 19 1 4 3 -2 6 -13 5 -11 0 -14 -3 -6 -6z"/>
<path d="M5116 8381 c-4 -5 3 -7 14 -4 23 6 26 13 6 13 -8 0 -17 -4 -20 -9z"/>
<path d="M6040 8375 c-14 -8 -20 -14 -15 -14 6 0 21 6 35 14 14 8 21 14 15 14
-5 0 -21 -6 -35 -14z"/>
<path d="M2958 8373 c7 -3 16 -2 19 1 4 3 -2 6 -13 5 -11 0 -14 -3 -6 -6z"/>
<path d="M6080 8370 c-12 -7 -12 -10 -1 -10 7 0 11 -6 7 -15 -7 -20 11 -19 22
0 7 14 11 13 28 -6 19 -22 19 -22 -3 -17 -17 5 -23 2 -23 -9 0 -12 8 -14 35
-10 21 3 33 2 30 -4 -4 -5 1 -9 9 -9 10 0 13 6 9 16 -6 16 5 13 45 -14 16 -11
-108 -9 -126 2 -14 8 -343 9 -351 0 -3 -3 1 -10 9 -15 11 -7 5 -8 -19 -4 -32
7 -33 7 -15 -12 11 -11 23 -18 28 -15 5 3 6 0 2 -6 -10 -16 -12 -16 -40 13
-14 14 -30 25 -36 25 -5 0 -10 5 -10 10 0 6 -33 10 -80 10 -47 0 -80 -4 -80
-10 0 -9 31 -15 54 -11 5 1 12 -2 15 -8 4 -5 18 -11 33 -13 15 -2 30 -7 34
-11 4 -4 20 -7 35 -7 15 0 29 -4 31 -10 2 -5 12 -11 23 -13 11 -2 37 -11 57
-20 20 -9 45 -14 54 -10 13 5 15 3 9 -7 -6 -10 -4 -12 8 -7 9 3 17 1 19 -4 2
-6 10 -11 18 -13 8 -2 39 -14 69 -29 29 -14 60 -23 69 -20 9 4 13 2 9 -4 -8
-12 69 -47 84 -37 7 4 9 3 6 -3 -8 -12 61 -46 75 -37 6 4 8 2 5 -3 -4 -6 0
-14 9 -17 10 -4 13 -2 9 7 -4 6 0 4 8 -5 11 -14 16 -15 26 -5 10 9 11 8 5 -7
-5 -13 -4 -17 3 -13 6 4 13 0 17 -8 3 -8 10 -15 16 -15 5 0 32 -14 60 -31 27
-17 55 -27 61 -23 7 4 9 3 6 -3 -3 -5 27 -29 66 -53 61 -37 259 -171 292 -197
89 -71 121 -97 180 -146 107 -90 336 -319 442 -444 421 -492 721 -1109 852
-1748 59 -291 75 -448 75 -775 1 -182 -4 -341 -12 -415 -119 -1071 -640 -2022
-1465 -2673 -1164 -918 -2742 -1089 -4075 -440 -939 458 -1660 1287 -1987
2288 -123 378 -182 720 -192 1125 -27 1067 372 2085 1115 2839 119 121 314
297 368 332 13 9 21 20 18 25 -3 5 -2 8 3 7 15 -4 54 23 47 34 -4 6 -3 8 3 5
13 -8 175 108 165 118 -4 5 -1 5 6 1 7 -4 32 7 60 26 26 18 49 34 52 36 2 2
-2 7 -10 12 -9 6 -10 10 -3 10 6 0 15 -4 18 -10 4 -6 15 -4 30 6 14 9 22 21
18 27 -3 6 -1 7 6 3 6 -4 33 5 59 21 26 15 59 33 75 40 15 7 27 15 27 18 0 3
-8 1 -18 -4 -14 -7 -19 -6 -19 3 0 8 10 12 25 10 34 -4 74 16 62 30 -6 8 -3
12 10 12 10 0 16 -4 14 -8 -3 -5 11 -1 30 9 30 14 34 19 23 32 -10 12 -9 13 7
4 14 -8 34 -3 86 20 l68 30 -3 38 c-3 32 -1 36 10 26 9 -9 10 -16 2 -25 -8
-10 -7 -16 3 -22 14 -9 56 7 46 17 -3 3 -12 0 -21 -7 -8 -7 -15 -8 -15 -2 0
15 31 24 44 13 7 -6 17 -6 26 0 21 13 -3 27 -38 22 -26 -4 -26 -4 -8 11 23 19
36 20 36 5 0 -6 7 -9 15 -5 8 3 14 0 12 -6 -1 -6 4 -13 12 -16 8 -2 11 0 7 6
-6 10 23 26 32 17 3 -3 -1 -5 -8 -5 -7 0 -11 -2 -8 -5 9 -10 38 7 31 18 -4 6
0 8 10 4 17 -6 137 33 137 45 0 4 -16 0 -36 -8 -20 -8 -41 -13 -47 -11 -7 2 3
7 20 11 18 4 36 12 39 18 5 8 -1 9 -17 4 -13 -5 -48 -7 -76 -6 -42 1 -53 -2
-53 -14 0 -14 -30 -16 -246 -16 -159 0 -243 3 -239 10 3 6 -1 7 -10 4 -14 -6
-14 -8 2 -20 27 -21 2 -16 -34 6 -19 11 -35 15 -38 9 -4 -5 -10 -7 -15 -4 -5
3 -12 0 -16 -6 -5 -8 -1 -10 13 -7 12 3 27 2 34 -3 9 -5 -1 -7 -26 -5 -44 3
-128 -30 -118 -47 4 -6 -1 -8 -10 -4 -10 3 -17 2 -17 -3 0 -6 -5 -10 -11 -10
-18 0 -159 -92 -153 -101 2 -4 -1 -11 -7 -15 -8 -4 -9 -3 -5 4 8 13 -6 16 -18
5 -4 -4 3 -16 16 -26 l23 -19 -28 16 c-24 15 -30 15 -42 3 -8 -8 -11 -18 -7
-21 3 -4 -1 -4 -9 -1 -9 3 -28 -4 -45 -17 -16 -13 -42 -32 -57 -41 -15 -10
-25 -22 -22 -26 2 -5 -1 -8 -9 -7 -20 2 -177 -124 -169 -137 3 -5 2 -7 -4 -4
-11 7 -119 -80 -116 -93 2 -6 -1 -9 -6 -7 -25 6 -276 -249 -439 -446 -710
-857 -1058 -1995 -952 -3112 79 -829 396 -1611 918 -2267 136 -171 469 -504
642 -642 629 -501 1335 -791 2165 -888 169 -20 674 -17 855 5 798 98 1508 394
2120 883 174 139 506 471 644 644 118 148 282 389 371 544 607 1062 730 2344
336 3498 -207 607 -545 1156 -985 1601 -180 183 -397 373 -410 360 -3 -3 -6
-1 -6 4 0 15 -81 74 -92 67 -5 -3 -7 -1 -6 4 4 13 -80 74 -92 67 -5 -3 -12 0
-16 6 -5 8 -2 10 7 5 8 -4 3 2 -11 13 -24 20 -36 25 -53 22 -5 -1 -6 2 -3 7 6
10 -159 112 -183 112 -9 0 -23 5 -31 11 -12 9 -11 10 5 5 20 -6 20 -6 1 9 -11
8 -25 15 -32 15 -6 0 -17 7 -24 15 -8 10 -21 13 -34 9 -12 -4 -18 -3 -14 1 11
11 -61 54 -90 55 -12 0 -25 6 -28 14 -3 9 -13 12 -22 9 -9 -4 -14 -3 -10 2 9
10 -60 45 -77 39 -7 -3 -16 0 -21 7 -5 8 -3 10 6 4 9 -5 11 -4 6 4 -4 6 -12 9
-17 6 -5 -4 -16 1 -24 9 -9 8 -23 12 -32 9 -11 -4 -14 -3 -9 5 9 14 6 15 -14
2z m-447 -97 c-7 -2 -19 -2 -25 0 -7 3 -2 5 12 5 14 0 19 -2 13 -5z m45 -18
c-3 -3 -9 2 -12 12 -6 14 -5 15 5 6 7 -7 10 -15 7 -18z m144 3 c-9 -9 -15 -9
-24 0 -9 9 -7 12 12 12 19 0 21 -3 12 -12z m538 -19 c12 -8 9 -9 -10 -4 l-25
6 25 -15 c17 -11 20 -15 9 -16 -19 0 -42 24 -32 33 9 9 15 9 33 -4z m-405 -59
c-11 -5 -27 -9 -35 -9 -9 0 -8 4 5 9 11 5 27 9 35 9 9 0 8 -4 -5 -9z m480 -29
c-6 -5 -25 10 -25 20 0 5 6 4 14 -3 8 -7 12 -15 11 -17z m-3962 -8 c3 -5 -5
-8 -18 -8 -13 0 -21 3 -18 8 2 4 10 7 18 7 8 0 16 -3 18 -7z m3520 0 c-7 -2
-19 -2 -25 0 -7 3 -2 5 12 5 14 0 19 -2 13 -5z m-3628 -42 c-3 -6 -11 -11 -16
-11 -5 0 -4 6 3 14 14 16 24 13 13 -3z m530 -10 c-3 -3 -9 0 -13 6 -5 8 -13 9
-22 3 -13 -9 -13 -10 0 -10 13 0 13 -1 0 -10 -8 -5 -19 -10 -25 -10 -5 0 -3 5
5 10 13 9 13 10 0 10 -9 1 -5 6 10 15 18 9 29 10 38 3 7 -6 10 -13 7 -17z
m-570 -18 c-2 -10 -4 -20 -4 -22 -1 -3 -7 1 -13 7 -10 10 -10 15 2 22 19 12
19 13 15 -7z m70 7 c3 -6 -1 -7 -9 -4 -18 7 -21 14 -7 14 6 0 13 -4 16 -10z
m-28 -16 c-3 -3 -12 -4 -19 -1 -8 3 -5 6 6 6 11 1 17 -2 13 -5z"/>
<path d="M5178 8363 c7 -3 16 -2 19 1 4 3 -2 6 -13 5 -11 0 -14 -3 -6 -6z"/>
<path d="M3512 8349 c2 -7 -15 -18 -37 -26 -31 -10 -33 -12 -10 -9 16 2 39 0
50 -6 16 -9 18 -8 8 3 -9 9 -9 16 -2 25 7 8 7 14 -1 19 -6 4 -9 1 -8 -6z"/>
<path d="M3577 8346 c-14 -11 -15 -15 -3 -19 19 -7 56 3 56 15 0 6 13 8 29 6
17 -2 28 -1 25 4 -7 11 -52 10 -59 -2 -3 -5 -11 -10 -16 -10 -6 0 -7 5 -4 10
9 14 -7 12 -28 -4z"/>
<path d="M5303 8346 c26 -10 45 -12 60 -6 20 8 19 9 -8 8 -16 0 -43 2 -60 6
-24 5 -22 3 8 -8z"/>
<path d="M5428 8350 c30 -12 28 -24 -2 -16 -13 3 -35 2 -48 -3 -16 -6 -4 -8
44 -7 63 2 112 16 55 16 -14 0 -29 5 -32 10 -3 6 -14 10 -23 9 -12 0 -11 -3 6
-9z"/>
<path d="M5478 8353 c7 -3 16 -2 19 1 4 3 -2 6 -13 5 -11 0 -14 -3 -6 -6z"/>
<path d="M3455 8340 c-13 -5 -14 -9 -5 -9 8 0 24 4 35 9 13 5 14 9 5 9 -8 0
-24 -4 -35 -9z"/>
<path d="M2760 8330 c12 -8 10 -10 -10 -11 -14 0 -19 -3 -12 -6 7 -3 25 -2 40
2 25 7 25 8 7 15 -28 12 -43 12 -25 0z"/>
<path d="M5465 8310 c-23 -6 -25 -8 -8 -9 12 0 30 -4 40 -7 14 -5 15 -4 4 4
-11 8 -10 11 5 15 10 2 12 5 4 5 -8 0 -28 -4 -45 -8z"/>
<path d="M2697 8296 c4 -5 -1 -7 -10 -3 -9 3 -19 2 -22 -2 -4 -8 95 -4 103 4
2 1 -15 4 -37 7 -23 2 -37 -1 -34 -6z"/>
<path d="M3440 8290 c0 -5 5 -10 11 -10 5 0 7 5 4 10 -3 6 -8 10 -11 10 -2 0
-4 -4 -4 -10z"/>
<path d="M3478 8293 c7 -3 16 -2 19 1 4 3 -2 6 -13 5 -11 0 -14 -3 -6 -6z"/>
<path d="M3203 8263 c0 -9 6 -11 16 -7 20 9 49 9 81 -1 21 -6 23 -5 13 6 -18
18 -110 20 -110 2z"/>
<path d="M3330 8271 c0 -5 7 -12 16 -15 14 -5 15 -4 4 9 -14 17 -20 19 -20 6z"/>
<path d="M3367 8269 c7 -7 15 -10 18 -7 3 3 -2 9 -12 12 -14 6 -15 5 -6 -5z"/>
<path d="M2596 8251 c-14 -5 -16 -10 -8 -15 7 -4 22 0 34 8 24 17 9 21 -26 7z"/>
<path d="M2170 6214 c-637 -59 -1176 -667 -1331 -1504 -26 -137 -37 -470 -20
-604 76 -597 473 -893 1091 -812 58 8 106 13 108 11 2 -2 -21 -110 -51 -240
l-54 -237 293 4 c161 1 295 6 299 9 6 7 385 1589 385 1610 0 9 -70 10 -302 4
-167 -4 -304 -8 -306 -10 -1 -1 -31 -129 -66 -284 -35 -155 -66 -284 -68 -286
-9 -9 -185 -35 -239 -35 -233 0 -377 125 -423 369 -30 158 -18 413 30 630 98
440 313 745 557 790 125 23 212 -25 255 -141 23 -62 42 -215 42 -343 l0 -83
303 5 c166 3 304 8 307 10 3 3 5 89 5 191 -1 284 -30 441 -110 611 -80 166
-223 280 -400 316 -77 15 -234 25 -305 19z"/>
<path d="M7051 6199 c-155 -18 -335 -87 -484 -186 -189 -125 -385 -360 -509
-609 -166 -332 -248 -720 -235 -1119 7 -239 39 -392 113 -553 130 -284 391
-449 738 -468 709 -41 1285 588 1417 1546 20 146 17 492 -5 615 -86 472 -345
729 -781 775 -103 11 -150 11 -254 -1z m145 -564 c98 -29 163 -116 201 -270
25 -99 24 -453 0 -614 -39 -250 -112 -478 -208 -648 -56 -99 -167 -214 -239
-247 -149 -69 -292 -28 -364 105 -51 92 -68 176 -73 360 -15 478 119 960 329
1185 116 124 231 166 354 129z"/>
<path d="M4006 6154 c-153 -7 -281 -15 -283 -18 -2 -2 -31 -143 -64 -312 -33
-170 -102 -527 -154 -794 -52 -267 -126 -649 -165 -850 -39 -201 -92 -476
-119 -612 l-47 -248 301 0 302 0 11 68 c7 37 68 402 137 811 69 409 127 746
130 749 3 3 7 3 9 1 2 -2 21 -226 42 -497 l38 -492 160 2 159 3 183 405 c248
549 267 587 270 570 2 -8 -69 -375 -159 -815 l-163 -800 305 -3 c167 -1 306 0
308 2 5 5 21 84 203 1036 71 371 176 923 234 1227 58 304 106 557 106 562 0 8
-103 11 -324 11 l-323 0 -43 -97 c-24 -54 -53 -120 -66 -148 -13 -27 -138
-304 -278 -615 -140 -311 -258 -565 -263 -565 -4 0 -33 322 -63 715 l-55 715
-25 1 c-14 1 -151 -4 -304 -12z"/>
</g>
</svg>
